<svg xmlns="http://www.w3.org/2000/svg" width="360" height="240" viewBox="0 0 360 240" fill="none">
  <g fill="#d61f0d" fill-opacity="0.85">
    <path d="M52 68 C 40 60, 30 76, 44 88 C 52 96, 64 92, 70 84 C 78 74, 66 64, 52 68 Z"/>
    <circle cx="98" cy="52" r="6"/>
    <circle cx="120" cy="74" r="3"/>
    <circle cx="84" cy="98" r="2.5"/>
    <path d="M156 32 C 148 30, 142 42, 152 50 C 162 56, 174 50, 172 40 C 170 32, 162 30, 156 32 Z"/>
    <circle cx="190" cy="22" r="3.5"/>
    <circle cx="200" cy="48" r="2"/>
    <path d="M228 92 C 214 80, 200 102, 218 116 C 232 126, 252 114, 246 96 C 242 84, 234 86, 228 92 Z"/>
    <circle cx="268" cy="74" r="4"/>
    <circle cx="284" cy="92" r="2.5"/>
    <circle cx="250" cy="132" r="3"/>
    <path d="M88 156 C 76 148, 64 168, 80 180 C 96 190, 116 176, 108 160 C 102 150, 94 152, 88 156 Z"/>
    <circle cx="132" cy="172" r="3"/>
    <circle cx="50" cy="186" r="2.5"/>
    <path d="M308 144 C 300 138, 290 152, 302 162 C 314 170, 328 160, 322 148 C 318 142, 312 142, 308 144 Z"/>
    <circle cx="340" cy="172" r="4"/>
    <circle cx="318" cy="198" r="2.5"/>
    <circle cx="172" cy="212" r="3"/>
    <circle cx="200" cy="196" r="2"/>
    <circle cx="64" cy="36" r="2"/>
    <circle cx="278" cy="34" r="2.5"/>
  </g>
</svg>
